<svg width="16" height="16" viewBox="0 0 16 16" fill="none" xmlns="http://www.w3.org/2000/svg">
  <path
    d="M7.40143 1.24234C5.2007 1.43488 3.57273 3.37501 3.76527 5.57574L3.89023 7.00396C3.11305 7.06017 2.5 7.70849 2.5 8.5V12.5C2.5 13.3284 3.17157 14 4 14H12C12.8284 14 13.5 13.3284 13.5 12.5V8.5C13.5 7.67157 12.8284 7 12 7H5.89752L5.75766 5.40143C5.66139 4.30106 6.47537 3.331 7.57574 3.23473L8.07384 3.19115C8.89911 3.11895 9.62666 3.72943 9.69886 4.55471L11.6913 4.3804C11.5228 2.45476 9.82517 1.03029 7.89953 1.19876L7.40143 1.24234Z"
    fill="currentColor" />
</svg>